# xmcd
#
# Track frame offsets:
#	150
#	16737
#	33677
#	49801
#	62778
#	76718
#	93200
#	107801
#	127894
#	143051
#	165472
#	180407
#	191883
#	207953
#	225927
#
# Disc length: 3290 seconds
#
# Revision: 0
# Processed by: cddbd v1.5.2PL0 Copyright (c) Steve Scherf et al.
# Submitted via: audiograbber 1.83.01
#
DISCID=b80cd80f
DTITLE=Country Hits - Nashville Sound Vol. 21
DYEAR=1900
DGENRE=
TTITLE0=You Better Think Twice
TTITLE1=Any Man Of Mine
TTITLE2=Big Ole Truck
TTITLE3=Hopelessly Yours
TTITLE4=If I Ain't Got You
TTITLE5=Forgiveness
TTITLE6=Tender Moment
TTITLE7=You Lie
TTITLE8=Female Bonding
TTITLE9=Woman Walk The Line
TTITLE10=Where Love Begins
TTITLE11=Take Your Memory With You
TTITLE12=Sure Love
TTITLE13=Backroads
TTITLE14=Southern Grace
EXTD=
EXTT0=
EXTT1=
EXTT2=
EXTT3=
EXTT4=
EXTT5=
EXTT6=
EXTT7=
EXTT8=
EXTT9=
EXTT10=
EXTT11=
EXTT12=
EXTT13=
EXTT14=
PLAYORDER=
